<svg width="46" height="16" viewBox="0 0 46 16" fill="none" xmlns="http://www.w3.org/2000/svg">
<path d="M29.821 15.8086C29.3667 15.6798 28.9347 15.4807 28.5401 15.2183C27.8503 14.7703 27.2846 14.1507 26.8966 13.4181C26.504 12.675 26.3023 11.8432 26.3101 10.9997H29.6169C29.5943 11.3294 29.682 11.6572 29.8658 11.9298C29.9893 12.1042 30.1414 12.2556 30.3154 12.3775C30.5413 12.5335 30.8051 12.6231 31.0778 12.6364C31.3539 12.6494 31.6291 12.5947 31.8801 12.477C32.0455 12.4098 32.1952 12.3081 32.3197 12.1785C32.4196 12.0745 32.5052 11.9574 32.5744 11.8303C32.6299 11.7286 32.6665 11.6174 32.6823 11.5023C32.7085 11.3307 32.7085 11.1561 32.6823 10.9846C32.6655 10.8667 32.629 10.7526 32.5744 10.6473C32.5083 10.5179 32.4223 10.4001 32.3197 10.2982C32.1901 10.1726 32.0417 10.0687 31.8801 9.9904C31.7301 9.92159 31.5764 9.86162 31.4196 9.8108C31.257 9.75852 31.0845 9.69893 30.902 9.63204C30.5756 9.52579 30.2369 9.40634 29.8857 9.27367C29.516 9.13241 29.1618 8.9524 28.8288 8.73655C28.3786 8.45 27.987 8.07779 27.6756 7.64037C27.0558 6.78322 26.7671 5.72466 26.8643 4.66551C26.9097 4.12733 27.0591 3.60354 27.304 3.12411C27.5301 2.68519 27.8277 2.28833 28.1842 1.95036C28.5302 1.62218 28.9282 1.35564 29.3614 1.16196C29.8017 0.966979 30.2712 0.848957 30.7501 0.812866C31.2559 0.774558 31.7645 0.821859 32.255 0.95284C32.731 1.06457 33.1852 1.25637 33.599 1.52032C33.9935 1.77204 34.3447 2.08796 34.6385 2.45545C34.9305 2.82053 35.1576 3.23457 35.3096 3.67895C35.4654 4.13295 35.5442 4.61052 35.5427 5.09133H32.255C32.2466 4.85898 32.1539 4.63802 31.9947 4.47098C31.8356 4.30395 31.6213 4.20264 31.3931 4.18656C31.247 4.17655 31.1003 4.17655 30.9542 4.18656C30.8204 4.21043 30.6916 4.25749 30.5734 4.32569C30.4358 4.4062 30.3262 4.52819 30.2598 4.67478C30.1557 4.88059 30.1346 5.11954 30.2009 5.34092C30.2612 5.56589 30.4005 5.76059 30.5925 5.88817C30.787 5.99962 30.9894 6.09602 31.1981 6.17655C31.4194 6.26312 31.6541 6.34744 31.9025 6.42951C32.124 6.49613 32.3488 6.56864 32.5769 6.6479C32.8051 6.72717 33.034 6.82076 33.268 6.92616C34.0893 7.29553 34.7863 7.90129 35.2728 8.66866C35.7593 9.43603 36.0141 10.3314 36.0057 11.2443C36.0129 12.1472 35.7597 13.0325 35.2773 13.7908C34.5718 14.8688 33.4783 15.6224 32.2318 15.8895C31.8844 15.9625 31.5305 15.9995 31.1757 16C30.7177 15.9981 30.2621 15.9338 29.821 15.8086ZM39.2735 15.7192V4.41423H36.2703V1.05234H45.6V4.41423H42.5786V15.7133L39.2735 15.7192ZM16.0114 15.1188C14.2941 14.3782 12.928 12.987 12.2027 11.24C11.8232 10.3412 11.6306 9.37231 11.637 8.3942C11.6308 7.41611 11.8234 6.44726 12.2027 5.54835C12.9279 3.80134 14.2941 2.41009 16.0114 1.66957C16.8948 1.28881 17.8444 1.09259 18.8039 1.09259C19.7634 1.09259 20.713 1.28881 21.5963 1.66957C22.4477 2.03996 23.223 2.5697 23.8819 3.2312C24.5376 3.89575 25.0612 4.68247 25.4241 5.54835C25.8037 6.4472 25.9966 7.41605 25.9907 8.3942C25.9968 9.37237 25.8039 10.3413 25.4241 11.24C25.0614 12.1061 24.5378 12.8928 23.8819 13.5572C23.2233 14.219 22.4479 14.7488 21.5963 15.1188C20.7132 15.5002 19.7634 15.6968 18.8039 15.6968C17.8443 15.6968 16.8946 15.5002 16.0114 15.1188ZM17.3048 4.76248C16.3758 5.16453 15.6365 5.9172 15.2424 6.86208C15.0423 7.34727 14.9392 7.8681 14.9392 8.3942C14.9392 8.9203 15.0423 9.44113 15.2424 9.92632C15.6368 10.871 16.3765 11.6234 17.3056 12.0251C17.7824 12.229 18.2945 12.334 18.8118 12.334C19.329 12.334 19.8411 12.229 20.3179 12.0251C21.2471 11.6234 21.9867 10.871 22.3811 9.92632C22.5812 9.44113 22.6843 8.9203 22.6843 8.3942C22.6843 7.8681 22.5812 7.34727 22.3811 6.86208C21.9867 5.91688 21.2467 5.16417 20.3171 4.76248C19.8403 4.55856 19.3282 4.45352 18.8109 4.45352C18.2937 4.45352 17.7816 4.55856 17.3048 4.76248ZM4.46838 15.1694C3.57557 14.8088 2.76641 14.2632 2.0924 13.5673C1.42769 12.8846 0.899949 12.077 0.538557 11.1895C0.178666 10.3032 -0.00434937 9.353 0.000145535 8.3942C-0.00590606 7.42878 0.176825 6.47175 0.537727 5.57871C0.89617 4.69458 1.42441 3.89194 2.09157 3.21771C2.77035 2.52035 3.58346 1.97292 4.47999 1.6097C5.34033 1.25671 6.25919 1.07439 7.18698 1.07258C8.11215 1.07365 9.02844 1.25602 9.88567 1.6097C10.7776 1.97627 11.5862 2.52467 12.2617 3.22108L9.93462 5.58798C9.56834 5.21134 9.12865 4.91666 8.64376 4.72285C8.17677 4.53376 7.67887 4.43592 7.17619 4.43447C6.67691 4.43566 6.18244 4.53382 5.71942 4.72369C5.23874 4.91916 4.80295 5.2134 4.43934 5.58798C4.08154 5.9618 3.79641 6.40094 3.59896 6.88232C3.40269 7.36128 3.30283 7.87536 3.30528 8.3942C3.30205 8.90984 3.40197 9.42077 3.59896 9.89596C3.79802 10.3735 4.08303 10.809 4.43934 11.1802C4.80263 11.5554 5.23849 11.8499 5.71942 12.0453C6.18231 12.2356 6.67686 12.3338 7.17619 12.3345C7.67897 12.3333 8.17696 12.2351 8.64376 12.0453C9.12883 11.8519 9.56859 11.5571 9.93462 11.1802L12.2625 13.5682C11.5906 14.2623 10.7848 14.8078 9.89563 15.1703C8.153 15.8736 6.21184 15.8736 4.46921 15.1703L4.46838 15.1694Z" fill="#FEFEFF"/>
</svg>
