<svg width="314" height="362" viewBox="0 0 314 362" fill="none" xmlns="http://www.w3.org/2000/svg">
<rect width="314" height="361.315" rx="20" fill="white"/>
<rect x="17.2055" y="24.9479" width="93.7699" height="17.2055" rx="8.60274" fill="#0BB783"/>
<rect x="279.589" y="24.9479" width="17.2055" height="17.2055" rx="8.60274" fill="#F64E60"/>
<rect x="253.781" y="24.9479" width="17.2055" height="17.2055" rx="8.60274" fill="#1BC5BD"/>
<rect x="227.973" y="24.9479" width="17.2055" height="17.2055" rx="8.60274" fill="#FFA800"/>
<rect x="17.2055" y="52.4767" width="139.364" height="15.4849" rx="7.74247" fill="#E8E8F3"/>
<rect x="110.975" y="200.444" width="93.7699" height="17.2055" rx="8.60274" fill="#0BB783"/>
<circle cx="157.43" cy="209.047" r="96.3507" stroke="#EFEFF5" stroke-width="28"/>
<path d="M188.104 300.384C175.471 304.627 162.096 306.202 148.823 305.012C135.551 303.822 122.669 299.891 110.993 293.468C99.317 287.046 89.1001 278.271 80.9881 267.699C72.8761 257.126 67.0455 244.986 63.8646 232.045" stroke="#1BC5BD" stroke-width="28" stroke-linecap="round"/>
<path d="M66.0924 239.72C61.85 227.088 60.2743 213.712 61.4647 200.44C62.6551 187.167 66.5857 174.286 73.0083 162.61C79.4308 150.933 88.2056 140.717 98.7781 132.605C109.35 124.493 121.491 118.662 134.431 115.481" stroke="#FFA800" stroke-width="28" stroke-linecap="round"/>
<path d="M126.757 117.709C139.389 113.467 152.764 111.891 166.037 113.081C179.31 114.272 192.191 118.202 203.867 124.625C215.543 131.047 225.76 139.822 233.872 150.395C241.984 160.967 247.815 173.107 250.996 186.048" stroke="#F64E60" stroke-width="28" stroke-linecap="round"/>
</svg>
