<svg width="41" height="40" viewBox="0 0 41 40" fill="none" xmlns="http://www.w3.org/2000/svg">
<path d="M20.9302 0H20C8.95431 0 0 8.95431 0 20C0 31.0457 8.95431 40 20 40H20.9302C31.9759 40 40.9302 31.0457 40.9302 20C40.9302 8.95431 31.9759 0 20.9302 0Z" fill="#FEFEFF"/>
<path d="M20.9321 9.09393H20.7582C17.8974 9.09478 15.1514 10.2199 13.1125 12.2266C11.0736 14.2333 9.90495 16.961 9.85858 19.8214C9.85858 19.8819 9.85858 19.9358 9.85858 19.9953C9.85895 22.8555 10.9836 25.601 12.9899 27.6395C14.9962 29.678 17.7234 30.8462 20.5833 30.8921C20.6437 30.8921 20.7005 30.8921 20.7609 30.8921C23.6211 30.8917 26.3666 29.7671 28.4051 27.7608C30.4436 25.7545 31.6118 23.0273 31.6577 20.1674C31.6577 20.1098 31.6577 20.0502 31.6577 19.9925C31.6571 17.1321 30.5323 14.3864 28.5259 12.3476C26.5195 10.3089 23.7922 9.14031 20.9321 9.09393ZM28.3842 20.1163C28.3494 22.1173 27.5307 24.0247 26.1043 25.4285C24.6779 26.8323 22.7576 27.6204 20.7563 27.6232H20.6335C18.6323 27.5889 16.7246 26.7704 15.3207 25.3439C13.9168 23.9174 13.1289 21.9968 13.1265 19.9953V19.8725C13.1618 17.8717 13.9806 15.9645 15.4069 14.5608C16.8332 13.1571 18.7532 12.3689 20.7544 12.3656H20.8772C22.878 12.4004 24.7851 13.2191 26.1885 14.6456C27.5918 16.0721 28.3793 17.9924 28.3814 19.9935L28.3842 20.1163Z" fill="#231F1F"/>
</svg>
