<svg width="628" height="487" viewBox="0 0 628 487" fill="none" xmlns="http://www.w3.org/2000/svg">
<g filter="url(#filter0_d)">
<rect x="24" y="20" width="580" height="439" rx="20" fill="white"/>
</g>
<line x1="54" y1="131.5" x2="574" y2="131.5" stroke="#EFEFF5"/>
<line x1="54" y1="191.5" x2="574" y2="191.5" stroke="#EFEFF5"/>
<line x1="54" y1="251.5" x2="574" y2="251.5" stroke="#EFEFF5"/>
<line x1="54" y1="311.5" x2="574" y2="311.5" stroke="#EFEFF5"/>
<line x1="54" y1="371.5" x2="574" y2="371.5" stroke="#EFEFF5"/>
<rect opacity="0.49" x="132" y="402" width="50" height="10" rx="5" fill="#FFA800"/>
<rect x="54" y="48" width="93.7699" height="17.2055" rx="8.60274" fill="#0BB783"/>
<rect x="54" y="402" width="50" height="10" rx="5" fill="#0BB783"/>
<rect opacity="0.49" x="210" y="402" width="50" height="10" rx="5" fill="#FF4B55"/>
<rect x="54" y="75.5288" width="139.364" height="15.4849" rx="7.74247" fill="#E8E8F3"/>
<path d="M58 329C58 329 90.3543 212 148 212C223.5 212 266.007 338.652 382.007 338.652C498.007 338.652 536.5 130.5 536.5 130.5" stroke="#0BB783" stroke-width="6" stroke-linecap="round"/>
<defs>
<filter id="filter0_d" x="0" y="0" width="628" height="487" filterUnits="userSpaceOnUse" color-interpolation-filters="sRGB">
<feFlood flood-opacity="0" result="BackgroundImageFix"/>
<feColorMatrix in="SourceAlpha" type="matrix" values="0 0 0 0 0 0 0 0 0 0 0 0 0 0 0 0 0 0 127 0"/>
<feOffset dy="4"/>
<feGaussianBlur stdDeviation="12"/>
<feColorMatrix type="matrix" values="0 0 0 0 0 0 0 0 0 0 0 0 0 0 0 0 0 0 0.05 0"/>
<feBlend mode="normal" in2="BackgroundImageFix" result="effect1_dropShadow"/>
<feBlend mode="normal" in="SourceGraphic" in2="effect1_dropShadow" result="shape"/>
</filter>
</defs>
</svg>
